<svg width="26" height="26" viewBox="0 0 26 26" xmlns="http://www.w3.org/2000/svg">
    <path d="M22.4138 22.0003H3.58623C3.26248 22.0003 2.99997 22.2628 2.99997 22.5866V23.414C2.99997 23.7378 3.26248 24.0003 3.58623 24.0003H22.4138C22.7375 24.0003 23 23.7378 23 23.414V22.5866C23 22.2628 22.7375 22.0003 22.4138 22.0003ZM22.4988 2H3.50119C2.67212 2 2 2.67212 2 3.50119V18.4992C2 19.3283 2.67212 20.0004 3.50119 20.0004H22.4988C23.3279 20.0004 24 19.3283 24 18.4992V3.50147C24.0003 2.67212 23.3282 2 22.4988 2V2ZM7.99985 16.0002C7.99985 16.5525 7.55223 17.0002 6.99988 17.0002C6.44752 17.0002 5.9999 16.5523 5.9999 16.0002V12.0003C5.9999 11.4479 6.44752 11.0003 6.99988 11.0003C7.55223 11.0003 7.99985 11.4479 7.99985 12.0003V16.0002ZM12 16.0002C12 16.5525 11.5524 17.0002 11 17.0002C10.4477 17.0002 10.0001 16.5523 10.0001 16.0002V6.00017C10.0001 5.44782 10.4477 5.0002 11 5.0002C11.5524 5.0002 12 5.44782 12 6.00017V16.0002ZM15.9999 16.0002C15.9999 16.5525 15.5523 17.0002 14.9999 17.0002C14.4476 17.0002 14 16.5523 14 16.0002V14.0002C14 13.4479 14.4476 13.0003 14.9999 13.0003C15.5523 13.0003 15.9999 13.4479 15.9999 14.0002V16.0002ZM20.0001 16.0002C20.0001 16.5525 19.5525 17.0002 19.0001 17.0002C18.4478 17.0002 18.0001 16.5523 18.0001 16.0002V8.00012C18.0001 7.44777 18.4478 7.00015 19.0001 7.00015C19.5525 7.00015 20.0001 7.44777 20.0001 8.00012V16.0002V16.0002Z"/>
</svg>
