<svg width="26" height="26" viewBox="0 0 26 26" xmlns="http://www.w3.org/2000/svg">
    <path d="M17.3184 5.83862H4.84367C3.27574 5.83862 2 7.11371 2 8.681V21.1568C2 22.7245 3.27574 24 4.84367 24H17.3184C18.8861 24 20.1616 22.7245 20.1616 21.1568V8.681C20.1616 7.11371 18.8861 5.83862 17.3184 5.83862V5.83862ZM3.84809 8.681C3.84809 8.13207 4.29475 7.68563 4.84367 7.68563H17.3184C17.8671 7.68563 18.3135 8.13207 18.3135 8.681V21.1568C18.3135 21.7061 17.8671 22.153 17.3184 22.153H4.84367C4.29475 22.153 3.84809 21.7061 3.84809 21.1568V8.681V8.681Z"/>
    <path d="M21.1568 2H8.68208C8.17269 2 7.75825 2.414 7.75825 2.92297C7.75825 3.43236 8.17269 3.8468 8.68208 3.8468H21.157C21.7057 3.8468 22.1521 4.29324 22.1521 4.84217V17.3179C22.1521 17.8273 22.5666 18.2418 23.076 18.2418C23.5854 18.2418 23.9998 17.8273 23.9998 17.3179V4.84238C24 3.2751 22.7245 2 21.1568 2ZM6.76267 20.1614H15.399C15.9084 20.1614 16.3228 19.747 16.3228 19.2376C16.3228 18.7286 15.9084 18.3146 15.399 18.3146H6.76267C6.25306 18.3146 5.83841 18.7286 5.83841 19.2376C5.83841 19.747 6.25306 20.1614 6.76267 20.1614Z"/>
</svg>
