<svg width="26" height="26" viewBox="0 0 26 26" xmlns="http://www.w3.org/2000/svg">
    <path d="M3.60714 2H22.8929C23.3191 2 23.7279 2.16556 24.0293 2.46026C24.3307 2.75496 24.5 3.15466 24.5 3.57143V9.85714C24.5 10.2739 24.3307 10.6736 24.0293 10.9683C23.7279 11.263 23.3191 11.4286 22.8929 11.4286H3.60714C3.1809 11.4286 2.77212 11.263 2.47072 10.9683C2.16932 10.6736 2 10.2739 2 9.85714V3.57143C2 3.15466 2.16932 2.75496 2.47072 2.46026C2.77212 2.16556 3.1809 2 3.60714 2V2ZM6.01786 5.14286C5.80476 5.14289 5.6004 5.22569 5.44973 5.37303C5.29906 5.52038 5.21442 5.72021 5.21442 5.92857C5.21442 6.13693 5.29906 6.33676 5.44973 6.48411C5.6004 6.63146 5.80476 6.71425 6.01786 6.71429H10.8393C11.0524 6.71425 11.2567 6.63146 11.4074 6.48411C11.5581 6.33676 11.6427 6.13693 11.6427 5.92857C11.6427 5.72021 11.5581 5.52038 11.4074 5.37303C11.2567 5.22569 11.0524 5.14289 10.8393 5.14286H6.01786V5.14286ZM3.60714 14.5714H22.8929C23.3191 14.5714 23.7279 14.737 24.0293 15.0317C24.3307 15.3264 24.5 15.7261 24.5 16.1429V22.4286C24.5 22.6349 24.4584 22.8393 24.3777 23.0299C24.2969 23.2206 24.1785 23.3938 24.0293 23.5397C23.88 23.6857 23.7029 23.8014 23.5079 23.8804C23.3129 23.9594 23.1039 24 22.8929 24H3.60714C3.39609 24 3.1871 23.9594 2.99212 23.8804C2.79713 23.8014 2.61996 23.6857 2.47072 23.5397C2.32148 23.3938 2.2031 23.2206 2.12234 23.0299C2.04157 22.8393 2 22.6349 2 22.4286V16.1429C2 15.9365 2.04157 15.7322 2.12234 15.5415C2.2031 15.3508 2.32148 15.1776 2.47072 15.0317C2.61996 14.8858 2.79713 14.77 2.99212 14.691C3.1871 14.6121 3.39609 14.5714 3.60714 14.5714V14.5714ZM6.01786 17.7143C5.80474 17.7143 5.60035 17.7971 5.44965 17.9444C5.29895 18.0918 5.21429 18.2916 5.21429 18.5C5.21429 18.7084 5.29895 18.9082 5.44965 19.0556C5.60035 19.2029 5.80474 19.2857 6.01786 19.2857H10.8393C11.0524 19.2857 11.2568 19.2029 11.4075 19.0556C11.5582 18.9082 11.6429 18.7084 11.6429 18.5C11.6429 18.2916 11.5582 18.0918 11.4075 17.9444C11.2568 17.7971 11.0524 17.7143 10.8393 17.7143H6.01786V17.7143Z"/>
</svg>
