<svg width="26" height="26" viewBox="0 0 26 26"  xmlns="http://www.w3.org/2000/svg">
    <path d="M13.3224 14.9141C14.5973 16.076 16.5478 16.076 17.8227 14.9141C18.0069 14.7446 18.2894 14.7446 18.4737 14.9141C19.2033 15.5822 20.1932 15.8893 21.1734 15.7542C21.5173 15.71 21.8538 15.6117 22.1683 15.4619V19.5004C22.1683 21.5221 20.5273 23.163 18.5056 23.163H7.50047C5.47631 23.163 3.83537 21.5221 3.83537 19.5004V15.4521C4.22841 15.6437 4.65338 15.7542 5.08819 15.7788C5.98481 15.8328 6.86424 15.5208 7.52504 14.9141C7.70928 14.7446 7.99177 14.7446 8.17601 14.9141C9.45094 16.076 11.4014 16.076 12.6763 14.9141C12.8581 14.7446 13.1406 14.7446 13.3248 14.9141H13.3224V14.9141ZM20.2252 3.00004C21.0088 2.99758 21.7089 3.48397 21.984 4.21846L23.7797 9.60803L23.8387 9.77262L23.8657 9.84877C24.0229 10.372 24.0426 10.9272 23.9222 11.4602C23.6102 12.7769 22.5122 13.762 21.1709 13.9339C20.1908 14.069 19.2033 13.7595 18.4737 13.0938C18.2894 12.9243 18.0045 12.9243 17.8227 13.0938C16.5478 14.2557 14.5973 14.2557 13.3224 13.0938C13.1406 12.9243 12.8556 12.9243 12.6739 13.0938C11.3989 14.2557 9.44848 14.2557 8.17355 13.0938C7.98932 12.9243 7.70682 12.9243 7.52258 13.0938C6.85933 13.6981 5.97744 14.0101 5.08082 13.9511C3.50374 13.8602 2.21653 12.6615 2.01756 11.0967C1.97334 10.6766 2.01264 10.2516 2.13547 9.84877L2.14284 9.8242C2.16986 9.74068 2.19934 9.65716 2.23127 9.5761L4.00732 4.21846C4.28245 3.48151 4.98747 2.99512 5.77355 3.00004H20.2252V3.00004Z"/>
</svg>
