<svg width="26" height="26" viewBox="0 0 26 26" xmlns="http://www.w3.org/2000/svg">
    <path d="M13.5811 23.8489C12.9591 23.8489 12.3371 23.6977 11.715 23.6977C10.471 23.5466 9.22694 23.3955 8.1384 22.7909C7.82739 22.6398 7.51638 22.4887 7.36087 22.3375C6.89436 22.0352 6.58334 21.5818 6.58334 20.9773C6.73885 17.6523 8.29391 15.2342 11.2485 13.5717C11.404 13.4206 11.5595 13.4206 11.715 13.5717C14.0476 14.9319 16.3802 14.9319 18.7128 13.5717C18.8683 13.5717 19.0238 13.4206 19.1793 13.5717C21.8229 14.9319 23.378 17.1989 23.8445 20.0705C23.8445 20.3728 23.8445 20.675 24 20.9773C24 21.5818 23.8445 22.0352 23.378 22.3375C22.6005 22.9421 21.8229 23.2443 20.8899 23.3955C19.6458 23.5466 18.4018 23.6977 17.1577 24C17.0022 24 17.3133 24 17.1577 24C16.2247 23.8489 14.8252 23.8489 13.5811 23.8489V23.8489Z"/>
    <path d="M9.33334 7.88095C9.33334 4.63095 12.0345 2 15.2122 2C18.5489 2 21.25 4.63095 21.25 7.88095C21.25 11.131 18.5489 13.7619 15.2122 13.9167C12.0345 13.7619 9.33334 11.131 9.33334 7.88095V7.88095Z"/>
    <path d="M10.7083 13.0338C8.93715 13.6637 7.01836 13.1913 5.68997 11.7741C4.36158 10.1995 4.06638 7.83757 5.09958 5.94802C5.98517 4.21593 7.75636 3.1137 9.37994 3.42862C7.60876 6.8928 7.90395 10.042 10.7083 13.0338ZM5.54237 22.1667C4.36158 22.0092 3.32839 21.6943 2.4428 20.907C2.1476 20.592 2 20.2771 2 19.9622C2.1476 16.9704 3.32839 14.6085 5.83757 13.1913H6.28037C7.16596 13.6637 7.90395 13.9786 8.93715 14.1361C6.57556 16.1831 5.54237 18.86 5.54237 22.1667Z" />
</svg>
