<svg width="26" height="26" viewBox="0 0 26 26" xmlns="http://www.w3.org/2000/svg">
    <path d="M11.0389 1C11.5745 1.00065 12.1021 1.12966 12.5776 1.37623C13.0531 1.6228 13.4625 1.97975 13.7716 2.41716C14.0807 2.85456 14.2805 3.35969 14.3541 3.8902C14.4278 4.42071 14.3732 4.96115 14.195 5.46622H18.849C19.1419 5.46622 19.4319 5.52391 19.7025 5.63599C19.9731 5.74807 20.2189 5.91235 20.426 6.11944C20.6331 6.32654 20.7974 6.57239 20.9095 6.84298C21.0215 7.11356 21.0792 7.40357 21.0792 7.69645V12.3519C21.5849 12.1714 22.1266 12.1151 22.6587 12.1876C23.1907 12.2602 23.6975 12.4596 24.1364 12.7689C24.5753 13.0783 24.9334 13.4886 25.1806 13.9653C25.4278 14.4419 25.5568 14.971 25.5568 15.508C25.5568 16.045 25.4278 16.5741 25.1806 17.0507C24.9334 17.5274 24.5753 17.9377 24.1364 18.2471C23.6975 18.5564 23.1907 18.7558 22.6587 18.8284C22.1266 18.9009 21.5849 18.8446 21.0792 18.6641V23.3196C21.08 23.6129 21.0229 23.9036 20.9111 24.1748C20.7994 24.4461 20.6352 24.6926 20.4281 24.9003C20.2209 25.108 19.9748 25.2728 19.7038 25.3852C19.4328 25.4977 19.1424 25.5556 18.849 25.5556H14.2022C14.3816 25.05 14.4369 24.5088 14.3636 23.9774C14.2904 23.446 14.0906 22.94 13.7811 22.5019C13.4717 22.0637 13.0615 21.7063 12.5852 21.4596C12.1089 21.2128 11.5804 21.0841 11.0439 21.0841C10.5075 21.0841 9.97896 21.2128 9.50266 21.4596C9.02635 21.7063 8.61622 22.0637 8.30676 22.5019C7.99729 22.94 7.79753 23.446 7.72425 23.9774C7.65098 24.5088 7.70633 25.05 7.88567 25.5556H3.23023C2.93686 25.5556 2.64638 25.4977 2.37542 25.3852C2.10446 25.2728 1.85835 25.108 1.65117 24.9003C1.444 24.6926 1.27985 24.4461 1.16811 24.1748C1.05637 23.9036 0.999244 23.6129 1 23.3196V18.6858C1.50409 18.8622 2.04311 18.9154 2.57194 18.8408C3.10078 18.7662 3.60405 18.566 4.03964 18.2569C4.47523 17.9479 4.83047 17.539 5.07561 17.0645C5.32076 16.5901 5.44868 16.0637 5.44868 15.5297C5.44868 14.9956 5.32076 14.4693 5.07561 13.9948C4.83047 13.5203 4.47523 13.1114 4.03964 12.8024C3.60405 12.4934 3.10078 12.2932 2.57194 12.2186C2.04311 12.144 1.50409 12.1971 1 12.3736V7.71811C1 7.12662 1.23497 6.55936 1.65322 6.14111C2.07147 5.72286 2.63873 5.48789 3.23023 5.48789H7.88423C7.706 4.9828 7.6516 4.4423 7.7256 3.91182C7.7996 3.38134 7.99985 2.87637 8.3095 2.43933C8.61916 2.0023 9.02919 1.64597 9.50514 1.40029C9.98109 1.15461 10.5091 1.02674 11.0447 1.02745L11.0403 1H11.0389Z"/>
</svg>
