<svg
        width="28"
        height="28"
        viewBox="0 0 28 28"
        xmlns="http://www.w3.org/2000/svg"
>
    <path
            d="M24.5 21C24.5 21.3094 24.3771 21.6062 24.1583 21.825C23.9395 22.0438 23.6428 22.1667 23.3333 22.1667L4.66667 22.1667C4.35725 22.1667 4.0605 22.0438 3.84171 21.825C3.62292 21.6062 3.5 21.3094 3.5 21C3.5 20.6906 3.62292 20.3938 3.84171 20.175C4.0605 19.9563 4.35725 19.8333 4.66667 19.8333L23.3333 19.8333C23.6428 19.8333 23.9395 19.9563 24.1583 20.175C24.3771 20.3938 24.5 20.6906 24.5 21ZM18.6667 16.3333C18.6667 16.6428 18.5438 16.9395 18.325 17.1583C18.1062 17.3771 17.8094 17.5 17.5 17.5L4.66667 17.5C4.35725 17.5 4.0605 17.3771 3.84171 17.1583C3.62292 16.9395 3.5 16.6428 3.5 16.3333C3.5 16.0239 3.62292 15.7272 3.84171 15.5084C4.0605 15.2896 4.35725 15.1667 4.66667 15.1667L17.5 15.1667C17.8094 15.1667 18.1062 15.2896 18.325 15.5084C18.5438 15.7272 18.6667 16.0239 18.6667 16.3333ZM18.6667 11.6667C18.6667 11.9761 18.5438 12.2728 18.325 12.4916C18.1062 12.7104 17.8094 12.8333 17.5 12.8333L4.66667 12.8333C4.35725 12.8333 4.0605 12.7104 3.84171 12.4916C3.62292 12.2728 3.5 11.9761 3.5 11.6667C3.5 11.3573 3.62292 11.0605 3.84171 10.8417C4.0605 10.6229 4.35725 10.5 4.66667 10.5L17.5 10.5C17.8094 10.5 18.1062 10.6229 18.325 10.8417C18.5438 11.0605 18.6667 11.3573 18.6667 11.6667ZM4.66667 5.83334L23.3333 5.83334C23.6428 5.83334 23.9395 5.95625 24.1583 6.17505C24.3771 6.39384 24.5 6.69059 24.5 7C24.5 7.30942 24.3771 7.60617 24.1583 7.82496C23.9395 8.04376 23.6428 8.16667 23.3333 8.16667L4.66667 8.16667C4.35725 8.16667 4.0605 8.04376 3.84171 7.82496C3.62292 7.60617 3.5 7.30942 3.5 7C3.5 6.69059 3.62292 6.39384 3.84171 6.17505C4.0605 5.95625 4.35725 5.83334 4.66667 5.83334ZM24.1582 14.9252C24.3707 15.1452 24.4883 15.4399 24.4856 15.7458C24.483 16.0517 24.3603 16.3443 24.144 16.5606C23.9276 16.7769 23.635 16.8996 23.3291 16.9023C23.0232 16.9049 22.7285 16.7874 22.5085 16.5748L20.7585 14.8248C20.5398 14.6061 20.4169 14.3094 20.4169 14C20.4169 13.6906 20.5398 13.394 20.7585 13.1752L22.5085 11.4252C22.7285 11.2127 23.0232 11.0951 23.3291 11.0977C23.635 11.1004 23.9276 11.2231 24.144 11.4394C24.3603 11.6557 24.483 11.9483 24.4856 12.2542C24.4883 12.5601 24.3707 12.8548 24.1582 13.0748L23.233 14L24.1582 14.9252Z"
    />
</svg>