<svg width="28" height="28" viewBox="0 0 28 28" fill="none" xmlns="http://www.w3.org/2000/svg">
    <path d="M19.7258 20.7989H9.12091C7.94966 20.7989 7 19.8495 7 18.678V16.0267C7 15.734 7.23755 15.4966 7.53013 15.4966H8.59078C8.88355 15.4966 9.12091 15.734 9.12091 16.0267V17.6175C9.12091 18.2033 9.59565 18.678 10.1814 18.678H18.6653C19.251 18.678 19.7258 18.2033 19.7258 17.6175V16.0267C19.7258 15.734 19.9631 15.4966 20.2561 15.4966H21.3166C21.6093 15.4966 21.8467 15.734 21.8467 16.0267V18.678C21.8467 19.8495 20.8972 20.7989 19.7258 20.7989ZM10.1129 10.3961C10.3274 10.1816 10.6754 10.1816 10.8899 10.3961L13.3631 12.8692V7.53038C13.3631 7.23762 13.6005 7 13.8932 7H14.9537C15.2465 7 15.484 7.23762 15.484 7.53038V12.8692L17.9571 10.3961C18.1717 10.1816 18.5195 10.1816 18.734 10.3961L19.5112 11.1733C19.7257 11.3879 19.7257 11.7357 19.5112 11.9504L15.1319 16.3298C15.1129 16.3487 14.7722 16.557 14.4294 16.5571C14.0828 16.5573 13.7341 16.3489 13.7152 16.3298L9.33561 11.9504C9.12108 11.7357 9.12108 11.3879 9.33561 11.1733L10.1129 10.3961Z" fill="#9C9C9C"/>
</svg>
