<svg width="28" height="28" viewBox="0 0 28 28" fill="none" xmlns="http://www.w3.org/2000/svg">
    <path d="M20.4064 17.6712C19.9315 17.3425 19.6301 16.8128 19.6301 16.2009V12.6393C19.6301 10.0365 17.7123 7.86301 15.1461 7.3242V7.19635C15.1461 6.52968 14.5982 6 13.9224 6C13.2466 6 12.6986 6.53881 12.6986 7.19635V7.3242C10.1324 7.86301 8.21461 10.0274 8.21461 12.6393V16.1918C8.21461 16.7671 7.94977 17.2694 7.52968 17.5982C7.48402 17.6347 7.45662 17.653 7.32877 17.7443C7.12785 17.8904 7 18.1187 7 18.3927C7 18.8311 7.3653 19.1963 7.81279 19.1963H20.0411C20.4886 19.1963 20.8539 18.8402 20.8539 18.3927C20.8539 18.1096 20.7078 17.863 20.4795 17.7169C20.4429 17.6986 20.4338 17.6804 20.4064 17.6712V17.6712ZM13.9224 22C15.0457 22 15.9589 21.105 15.9589 20H11.8858C11.8858 21.0959 12.7991 22 13.9224 22V22Z" fill="#9C9C9C"/>
</svg>
