<svg width="28" height="28" viewBox="0 0 28 28" fill="none" xmlns="http://www.w3.org/2000/svg">
    <path d="M21.8173 12.6186H21.8173L20.5072 12.3276C20.4051 12.0016 20.272 11.689 20.118 11.3883L20.8269 10.2083C21.0917 9.78497 21.2248 9.16305 20.8269 8.7644L20.1046 8.04276C19.91 7.84737 19.6485 7.76529 19.3845 7.76529C19.1111 7.76529 18.8343 7.85461 18.6279 7.99811L17.4788 8.73006C17.1805 8.57537 16.8696 8.44301 16.5459 8.33775L16.2517 7.0126C16.164 6.52622 15.7389 6 15.1753 6H14.1547C13.5909 6 13.2457 6.53422 13.134 7.02059L12.8063 8.32978C12.4611 8.43981 12.1285 8.58088 11.8128 8.74759L10.6351 7.99807C10.4278 7.85456 10.1519 7.76525 9.87761 7.76525C9.61448 7.76525 9.35295 7.84731 9.15756 8.04273L8.436 8.76436C8.03732 9.163 8.17128 9.78495 8.436 10.2083L9.18148 11.4505C9.042 11.7328 8.9176 12.023 8.82191 12.3276L7.51265 12.6185C7.02628 12.7064 6.5 13.1313 6.5 13.6951V14.7156C6.5 15.2793 7.03423 15.6246 7.52062 15.7362L8.84658 16.0671C8.93835 16.3486 9.05229 16.6188 9.18234 16.8803L8.43603 18.1242C8.1713 18.5467 8.03811 19.1687 8.43603 19.5673L9.15842 20.289C9.35299 20.4843 9.6145 20.5672 9.87838 20.5672C10.1519 20.5672 10.4286 20.4779 10.6351 20.3344L11.8152 19.5817C12.1333 19.7499 12.4675 19.8927 12.8151 20.0027L13.142 21.3088C13.2537 21.7951 13.5989 22.3294 14.1627 22.3294H15.1833C15.747 22.3294 16.172 21.8031 16.2597 21.3167L16.5539 19.9876C16.8744 19.8839 17.1822 19.7531 17.4765 19.6009L18.6279 20.3344C18.8343 20.478 19.1111 20.5673 19.3845 20.5673C19.6485 20.5673 19.9101 20.4843 20.1046 20.289L20.827 19.5674C21.2249 19.1687 21.0918 18.5468 20.827 18.1242L20.1174 16.9425C20.26 16.6619 20.3837 16.3701 20.4833 16.0671L21.8094 15.7362C22.2958 15.6246 22.83 15.2793 22.83 14.7156V13.695C22.8299 13.1313 22.3037 12.7064 21.8173 12.6186V12.6186ZM14.6793 16.6332C13.3182 16.6332 12.2098 15.5281 12.2098 14.171C12.2098 12.814 13.3181 11.7096 14.6793 11.7096C16.0403 11.7096 17.148 12.814 17.148 14.171C17.148 15.5281 16.0403 16.6332 14.6793 16.6332Z" fill="#9C9C9C"/>
</svg>
