<svg width="26" height="26" viewBox="0 0 26 26" xmlns="http://www.w3.org/2000/svg">
    <path d="M6.42383 10.5244C6.42383 11.8496 5.34958 12.9238 4.02441 12.9238C2.69925 12.9238 1.625 11.8496 1.625 10.5244C1.625 9.19925 2.69925 8.125 4.02441 8.125C5.34958 8.125 6.42383 9.19925 6.42383 10.5244ZM18.6875 7.08398C18.6875 8.54237 17.5053 9.72461 16.0469 9.72461C14.5885 9.72461 13.4062 8.54237 13.4062 7.08398C13.4062 5.6256 14.5885 4.44336 16.0469 4.44336C17.5053 4.44336 18.6875 5.6256 18.6875 7.08398ZM10.0039 20.3125C8.65772 20.3125 7.56641 19.2212 7.56641 17.875C7.56641 16.5288 8.65772 15.4375 10.0039 15.4375C11.3501 15.4375 12.4414 16.5288 12.4414 17.875C12.4414 19.2212 11.3501 20.3125 10.0039 20.3125ZM10.0039 21.9375C12.2476 21.9375 14.0664 20.1187 14.0664 17.875C14.0664 15.6313 12.2476 13.8125 10.0039 13.8125C7.76024 13.8125 5.94141 15.6313 5.94141 17.875C5.94141 20.1187 7.76024 21.9375 10.0039 21.9375ZM24.375 14.0156C24.375 15.3759 23.2723 16.4785 21.9121 16.4785C20.5519 16.4785 19.4492 15.3759 19.4492 14.0156C19.4492 12.6554 20.5519 11.5527 21.9121 11.5527C23.2723 11.5527 24.375 12.6554 24.375 14.0156Z"/>
    <path d="M6.90625 15.4375L2.84375 10.5625L4.09211 9.52219L8.15461 14.3972L6.90625 15.4375ZM10.9582 14.683L15.3762 6.15174L16.8192 6.89901L12.4012 15.4303L10.9582 14.683V14.683Z"/>
    <path d="M21.2222 14.4719L15.23 7.56567L16.4574 6.50073L22.4496 13.407L21.2222 14.4719Z"/>
</svg>
